# AST/ASF file generated using VICON BodyLanguage
# -----------------------------------------------
:version 1.10
:name VICON
:units
  mass 1.0
  length 0.45
  angle deg
:documentation
   .ast/.asf automatically generated from VICON data using
   VICON BodyBuilder and BodyLanguage model FoxedUp or BRILLIANT.MOD
:root
   order TX TY TZ RX RY RZ
   axis XYZ
   position 0 0 0  
   orientation 0 0 0 
:bonedata
  begin
     id 1 
     name lhipjoint
     direction 0.602128 -0.715006 0.355257 
     length 2.21237 
     axis 0 0 0  XYZ
  end
  begin
     id 2 
     name lfemur
     direction 0.34202 -0.939693 0  
     length 6.71649  
     axis 0 0 20  XYZ
    dof rx ry rz
    limits (-160.0 20.0)
           (-70.0 70.0)
           (-60.0 70.0)
  end
  begin
     id 3 
     name ltibia
     direction 0.34202 -0.939693 0   
     length 6.97123   
     axis 0 0 20   XYZ
    dof rx
    limits (-10.0 170.0)
  end
  begin
     id 4 
     name lfoot
     direction 0.0655697 -0.180151 0.981451   
     length 1.80924   
     axis -90 7.62852e-016 20   XYZ
    dof rx rz
    limits (-45.0 90.0)
           (-70.0 20.0)
  end
  begin
     id 5 
     name ltoes
     direction 1.53545e-011 -4.21827e-011 1   
     length 0.916331   
     axis -90 7.62852e-016 20   XYZ
    dof rx
    limits (-90.0 20.0)
  end
  begin
     id 6 
     name rhipjoint
     direction -0.625414 -0.698792 0.347201   
     length 2.2637  
     axis 0 0 0  XYZ 
  end
  begin
     id 7 
     name rfemur
     direction -0.34202 -0.939693 0   
     length 7.07595   
     axis 0 0 -20   XYZ
    dof rx ry rz
    limits (-160.0 20.0)
           (-70.0 70.0)
           (-70.0 60.0)
  end
  begin
     id 8 
     name rtibia
     direction -0.34202 -0.939693 0   
     length 7.22924   
     axis 0 0 -20   XYZ
    dof rx
    limits (-10.0 170.0)
 end
 begin
     id 9 
     name rfoot
     direction -0.0766747 -0.210662 0.974547   
     length 1.98482  
     axis -90 -7.62852e-016 -20   XYZ
    dof rx rz
    limits (-45.0 90.0)
           (-20.0 70.0)
  end
  begin
     id 10 
     name rtoes
     direction -1.53532e-011 -4.21867e-011 1   
     length 0.999842   
     axis -90 -7.62852e-016 -20   XYZ
    dof rx
    limits (-90.0 20.0)
  end
  begin
     id 11 
     name lowerback
     direction -0.0224668 0.997354 -0.0691422   
     length 2.09945   
     axis 0 0 0   XYZ
    dof rx ry rz
    limits (-20.0 45.0)
           (-30.0 30.0)
           (-30.0 30.0)
  end
  begin
     id 12 
     name upperback
     direction 0.0134698 0.998451 -0.0539888   
     length 2.09758   
     axis 0 0 0   XYZ
    dof rx ry rz
    limits (-20.0 45.0)
           (-30.0 30.0)
           (-30.0 30.0)
  end
  begin
     id 13 
     name thorax
     direction 0.0241905 0.99948 -0.0213333   
     length 2.10428   
     axis 0 0 0   XYZ
    dof rx ry rz
    limits (-20.0 45.0)
           (-30.0 30.0)
           (-30.0 30.0)
  end
  begin
     id 14 
     name lowerneck
     direction -0.00866847 0.995978 0.0891737   
     length 1.3959   
     axis 0 0 0   XYZ
    dof rx ry rz
    limits (-20.0 45.0)
           (-30.0 30.0)
           (-30.0 30.0)
  end
  begin
     id 15 
     name upperneck
     direction 0.0680679 0.992203 0.104404   
     length 1.39452   
     axis 0 0 0   XYZ
    dof rx ry rz
    limits (-20.0 45.0)
           (-30.0 30.0)
           (-30.0 30.0)
  end
  begin
     id 16
     name head
     direction 0.0242216 0.999358 0.0264054  
     length 1.40433  
     axis 0 0 0   XYZ
    dof rx ry rz
    limits (-20.0 45.0)
           (-30.0 30.0)
           (-30.0 30.0)
  end
  begin
     id 17 
     name lclavicle
     direction 0.929368 0.362991 -0.0671771  
     length 3.04887  
     axis 0 0 0   XYZ
    dof ry rz
    limits (-20.0 10.0)
           (0.0 20.0)
  end
  begin
     id 18 
     name lhumerus
     direction 1 -4.48967e-011 -7.13741e-028   
     length 4.77195   
     axis -180 -30 -90   XYZ
    dof rx ry rz
    limits (-60.0 90.0)
           (-90.0 90.0)
           (-90.0 90.0)
  end
  begin
     id 19
     name lradius
     direction 1 -4.48977e-011 3.60404e-027   
     length 2.98444   
     axis -180 -30 -90   XYZ
    dof rx
    limits (-10.0 170.0)
  end
  begin
     id 20
     name lwrist
     direction 1 -4.48997e-011 7.54877e-027   
     length 1.49222   
     axis -7.18178e-015 90 90   XYZ
    dof ry
    limits (-180.0 0.0)
 end
  begin
     id 21 
     name lhand
     direction 1 -4.489e-011 1.51105e-026   
     length 0.992285   
     axis -9.63605e-015 90 90   XYZ
    dof rx rz
    limits (-90.0 90.0)
           (-45.0 45.0)
  end
  begin
     id 22 
     name lfingers
     direction 1 -4.48998e-011 3.01948e-026   
     length 0.800006   
     axis -1.92718e-014 90 90   XYZ
    dof rx
    limits (0.0 90.0)
  end
  begin
     id 23
     name lthumb
     direction 0.707107 -6.34881e-011 0.707107   
     length 1.14865   
     axis -90 45 -3.53137e-014   XYZ
    dof rx rz
    limits (-45.0 45.0)
           (-45.0 45.0)
  end
  begin
     id 24 
     name rclavicle
     direction -0.945672 0.324529 0.0196374   
     length 3.4236  
     axis 0 0 0   XYZ 
    dof ry rz
    limits (-10.0 20.0)
           (-20.0 0.0)
  end
  begin
     id 25 
     name rhumerus
     direction -1 -4.4896e-011 1.02757e-029  
     length 4.62052   
     axis -180 30 90   XYZ
    dof rx ry rz
    limits (-90.0 60.0)
           (-90.0 90.0)
           (-90.0 90.0)
  end
  begin
     id 26 
     name rradius
     direction -1 -4.48982e-011 3.85962e-027   
     length 2.95332   
     axis -180 30 90   XYZ
    dof rx
    limits (-10.0 170.0)
  end
  begin
     id 27 
     name rwrist
     direction -1 -4.48961e-011 7.55118e-027   
     length 1.47666   
     axis -7.18178e-015 -90 -90   XYZ
    dof ry
    limits (-180.0 0.0)
  end
  begin
     id 28
     name rhand
     direction -1 -4.48984e-011 1.50994e-026   
     length 0.990956   
     axis -9.63605e-015 -90 -90   XYZ
    dof rx rz
    limits (-90.0 90.0)
           (-45.0 45.0)
  end
  begin
     id 29
     name rfingers
     direction -1 -4.4892e-011 3.02158e-026   
     length 0.798934   
     axis -1.92718e-014 -90 -90   XYZ
    dof rx
    limits (0.0 90.0)
  end
  begin
     id 30
     name rthumb
     direction -0.707107 -6.34916e-011 0.707107   
     length 1.14711   
     axis -90 -45 3.53137e-014   XYZ
    dof rx rz
    limits (-45.0 45.0)
           (-45.0 45.0)
  end
:hierarchy
  begin
    root lhipjoint rhipjoint lowerback
    lhipjoint lfemur
    lfemur ltibia
    ltibia lfoot
    lfoot ltoes
    rhipjoint rfemur
    rfemur rtibia
    rtibia rfoot
    rfoot rtoes
    lowerback upperback
    upperback thorax
    thorax lowerneck lclavicle rclavicle
    lowerneck upperneck
    upperneck head
    lclavicle lhumerus
    lhumerus lradius
    lradius lwrist
    lwrist lhand lthumb
    lhand lfingers
    rclavicle rhumerus
    rhumerus rradius
    rradius rwrist
    rwrist rhand rthumb
    rhand rfingers
  end

#!OML:ASF H:\ManfredObstacles\Project 1\Capture day 1\Session 1\Male.ASF
:FULLY-SPECIFIED
:DEGREES
188
root 6.14951 16.3579 18.0778 -169.748 -20.5002 -177.784
lowerback -7.492 -1.74855 -1.73476
upperback 1.12625 -2.15542 -0.451548
thorax 5.42353 -1.11395 0.243437
lowerneck 2.3195 -3.00066 -5.41052
upperneck -10.7398 -3.91917 8.33874
head -3.2803 -2.25952 3.56205
rclavicle -9.93923e-015 -3.97569e-015
rhumerus -30.966 -17.9206 -82.0366
rradius 28.6035
rwrist 30.443
rhand 0.134743 -7.16102
rfingers 7.12502
rthumb 25.7194 -35.4432
lclavicle -9.93923e-015 -3.97569e-015
lhumerus -23.7023 11.6221 81.9358
lradius 21.0314
lwrist -27.9887
lhand -9.75411 6.98674
lfingers 7.12502
lthumb 16.2204 36.3282
rfemur -30.3845 -4.13882 23.534
rtibia 27.4221
rfoot -17.4422 6.72218
rtoes 19.4767
lfemur -6.00887 -13.4633 -11.4678
ltibia 23.1447
lfoot 0.664713 -13.163
ltoes 13.3025
189
root 6.20603 16.3735 18.0186 -169.384 -21.5522 -178.179
lowerback -7.35687 -1.69166 -1.99228
upperback 1.09487 -2.04937 -0.77096
thorax 5.30951 -1.06658 0.0735178
lowerneck 2.20303 -3.01923 -5.20486
upperneck -10.7185 -3.94653 8.10552
head -3.26298 -2.26682 3.45453
rclavicle 3.01159e-014 -2.22639e-014
rhumerus -30.7853 -17.9204 -82.5151
rradius 28.6367
rwrist 30.486
rhand 0.113784 -6.94475
rfingers 7.12502
rthumb 25.6994 -35.2298
lclavicle 3.01159e-014 -2.22639e-014
lhumerus -23.2273 11.1721 82.0333
lradius 20.7967
lwrist -27.2571
lhand -9.95876 7.1166
lfingers 7.12502
lthumb 16.0234 36.474
rfemur -30.3424 -5.19039 23.5737
rtibia 27.2565
rfoot -17.7389 6.61358
rtoes 19.3283
lfemur -7.93847 -14.0739 -11.4942
ltibia 25.9193
lfoot 0.992402 -12.1569
ltoes 11.4667
190
root 6.2663 16.3842 17.9585 -169.152 -22.7845 -178.278
lowerback -7.16783 -1.64463 -1.90032
upperback 1.07018 -1.99133 -1.08283
thorax 5.16092 -1.03256 -0.288395
lowerneck 2.00432 -3.04474 -4.90426
upperneck -10.252 -4.02024 7.62038
head -3.45166 -2.26233 3.59293
rclavicle 2.54444e-014 1.59028e-014
rhumerus -30.7162 -17.7305 -83.1577
rradius 28.8537
rwrist 30.1058
rhand 0.00755712 -6.89989
rfingers 7.12502
rthumb 25.5976 -35.1996
lclavicle 2.54444e-014 1.59028e-014
lhumerus -23.011 10.9529 81.8851
lradius 20.8208
lwrist -26.9652
lhand -10.144 6.8171
lfingers 7.12502
lthumb 15.8449 36.1887
rfemur -30.2805 -5.9884 23.8487
rtibia 27.1919
rfoot -18.1306 6.08436
rtoes 19.0152
lfemur -9.98322 -14.3872 -11.1927
ltibia 28.92
lfoot 1.42931 -11.2371
ltoes 10.0651
191
root 6.3227 16.392 17.9046 -168.894 -24.138 -178.078
lowerback -7.04967 -1.60012 -1.59368
upperback 0.992847 -1.96009 -1.17668
thorax 4.99876 -1.00683 -0.548209
lowerneck 1.76487 -3.0692 -4.84956
upperneck -10.0898 -4.05777 7.37997
head -3.35024 -2.26486 3.48383
rclavicle 7.11649e-014 -2.94201e-014
rhumerus -30.7737 -17.1737 -83.5811
rradius 29.2769
rwrist 29.4952
rhand 0.189351 -7.23991
rfingers 7.12502
rthumb 25.7717 -35.5145
lclavicle 7.11649e-014 -2.94201e-014
lhumerus -23.1229 10.9354 81.9578
lradius 21.3881
lwrist -26.9333
lhand -10.1024 6.85532
lfingers 7.12502
lthumb 15.885 36.2238
rfemur -30.4537 -6.69811 24.4109
rtibia 27.2448
rfoot -18.525 5.45917
rtoes 18.2533
lfemur -12.2793 -14.4312 -10.6174
ltibia 31.932
lfoot 1.81839 -10.1067
ltoes 10.9119
192
root 6.37895 16.3992 17.8581 -168.591 -25.53 -178.438
lowerback -6.71276 -1.61997 -1.91024
upperback 0.991645 -1.96706 -1.29315
thorax 4.81384 -1.01883 -0.481718
lowerneck 1.57379 -3.02875 -5.08263
upperneck -10.0499 -4.00973 7.31431
head -3.30104 -2.22488 3.49542
rclavicle -5.82439e-014 -3.33958e-014
rhumerus -30.9541 -16.2256 -83.9002
rradius 30.1166
rwrist 28.6294
rhand 0.641987 -7.72923
rfingers 7.12502
rthumb 26.2051 -35.9402
lclavicle -5.82439e-014 -3.33958e-014
lhumerus -23.1028 10.6557 82.2775
lradius 21.7794
lwrist -26.6487
lhand -10.1274 7.11717
lfingers 7.12502
lthumb 15.8609 36.4875
rfemur -30.4857 -7.62346 24.4247
rtibia 27.2564
rfoot -18.9092 4.95846
rtoes 17.3445
lfemur -14.4601 -14.3244 -10.7816
ltibia 34.8833
lfoot 1.43607 -8.38646
ltoes 11.7733
193
root 6.42813 16.4087 17.8073 -168.411 -26.8919 -178.7
lowerback -6.4767 -1.57107 -1.89687
upperback 1.07999 -1.902 -1.57495
thorax 4.76192 -0.98553 -0.7688
lowerneck 1.45735 -2.966 -5.06941
upperneck -10.0534 -3.91504 7.37953
head -3.28621 -2.17956 3.51011
rclavicle 1.07344e-014 0
rhumerus -31.2954 -15.4609 -84.4249
rradius 31.263
rwrist 27.7902
rhand 0.944158 -7.89848
rfingers 7.12502
rthumb 26.4944 -36.0661
lclavicle 1.07344e-014 0
lhumerus -22.9156 9.88579 82.3641
lradius 21.8426
lwrist -26.0403
lhand -10.1873 6.85716
lfingers 7.12502
lthumb 15.8033 36.2321
rfemur -30.3273 -8.71397 24.5631
rtibia 27.1106
rfoot -19.2453 4.69835
rtoes 16.703
lfemur -16.4261 -13.8304 -11.0719
ltibia 37.6682
lfoot -0.340532 -5.96789
ltoes 10.2461
194
root 6.4727 16.4181 17.7591 -168.41 -28.2724 -178.568
lowerback -6.33195 -1.463 -1.30877
upperback 1.20763 -1.79692 -1.92891
thorax 4.783 -0.915312 -1.4526
lowerneck 1.45312 -2.92896 -4.69536
upperneck -10.0648 -3.84734 7.37404
head -3.29894 -2.1599 3.43658
rclavicle 1.51076e-014 -5.08889e-014
rhumerus -31.4065 -15.2306 -85.0553
rradius 31.9176
rwrist 27.389
rhand 0.860727 -7.84378
rfingers 7.12502
rthumb 26.4145 -36.0235
lclavicle 1.51076e-014 -5.08889e-014
lhumerus -22.7559 9.01122 82.2188
lradius 21.9308
lwrist -25.578
lhand -10.202 6.45773
lfingers 7.12502
lthumb 15.7891 35.8338
rfemur -30.1135 -9.66448 25.0481
rtibia 26.8549
rfoot -19.4857 4.40944
rtoes 15.3902
lfemur -18.2444 -12.8958 -11.1277
ltibia 40.0923
lfoot -2.77358 -3.27371
ltoes 9.2629
